<?xml version="1.0" standalone="no"?>
<!DOCTYPE svg PUBLIC "-//W3C//DTD SVG 20010904//EN"
 "http://www.w3.org/TR/2001/REC-SVG-20010904/DTD/svg10.dtd">
<svg version="1.0" xmlns="http://www.w3.org/2000/svg"
 width="150.000000pt" height="150.000000pt" viewBox="0 0 150.000000 150.000000"
 preserveAspectRatio="xMidYMid meet">
<metadata>
Created by potrace 1.11, written by Peter Selinger 2001-2013
</metadata>
<g transform="translate(0.000000,150.000000) scale(0.100000,-0.100000)"
fill="#000000" stroke="none">
<path d="M635 1488 c-150 -46 -232 -101 -326 -218 -70 -88 -134 -231 -155
-350 -18 -99 -9 -341 15 -402 6 -16 9 -28 6 -28 -6 0 51 -132 77 -177 45 -79
104 -146 178 -202 19 -14 37 -28 40 -31 33 -33 158 -71 246 -75 149 -7 278 43
394 153 39 37 70 72 70 79 0 7 3 13 8 13 12 0 67 98 96 171 23 60 37 113 50
189 3 14 5 25 6 25 1 0 3 41 4 90 1 82 -5 157 -20 225 -3 14 -8 37 -11 53 -3
15 -9 30 -14 33 -5 3 -9 12 -9 20 0 53 -110 225 -193 299 -56 51 -169 115
-232 130 -46 12 -196 14 -230 3z"/>
</g>
</svg>
